<svg xmlns="http://www.w3.org/2000/svg" xmlns:xlink="http://www.w3.org/1999/xlink" width="33" height="27" viewBox="0 0 33 27">
    <defs>
        <path id="a" d="M0 .107h32.686V27H0z"/>
    </defs>
    <g fill="none" fill-rule="evenodd">
        <g>
            <mask id="b" fill="#fff">
                <use xlink:href="#a"/>
            </mask>
            <path fill="#FFF" d="M27.607 20.366l-7.718.006c-.602 0-1.119-.188-1.12-.838 0-.677.574-.786 1.148-.787l3.815-.003 3.816-.003c.602 0 1.119.107 1.09.812.001.65-.487.813-1.031.813zm-.003-7.754l-7.717.007c-.603 0-1.12-.189-1.12-.839 0-.677.573-.786 1.146-.786l3.816-.004c1.263 0 2.554-.001 3.816-.003.602 0 1.119.108 1.09.812.001.65-.486.813-1.031.813zm0 4.748l-7.717.006c-.603 0-1.12-.189-1.12-.839 0-.677.573-.786 1.146-.786l3.816-.003 3.816-.003c.602 0 1.119.107 1.09.811.001.65-.486.813-1.031.814zm-25.71 7.82L1.886 6.793l28.82-.023c.032.326.063.682.063 1.038.003 2.284-.09 4.57.039 6.824v10.523l-28.914.023zm30.774-4.288l-.014-14.539c-.001-1.246-.19-1.423-1.541-1.422l-6.789.005-6.61.004-.003-2.82 4.222.004c.472 0 .849-.356.848-.772L22.78.878c0-.446-.378-.771-.85-.771L11.182.111c-.472 0-.849.357-.848.772l.002.474c0 .446.378.772.85.771l4.154-.001.002 2.819c-3.834.003-9.938.006-13.615.01-1.571 0-1.728.149-1.727 1.632.01 11.483.021 7.24.032 18.722.002 1.573.127 1.691 1.762 1.69l29.197-.024c1.603.028 1.697-.061 1.695-1.634-.006-6.735-.012 2.285-.018-4.45z" mask="url(#b)"/>
        </g>
        <path fill="#FFF" stroke="#FFF" stroke-width=".2" d="M9.007 17.497l-3.308 1.202c-.33.12-.7.498-.699.847L5.001 21 16 20.99l-.001-1.454c0-.396-.327-.861-.698-.994l-3.142-1.003c-.538-.141-.62-.55-.62-.783v-.21l.14-.162c.637-.74 1.318-1.808 1.317-2.589a3.07 3.07 0 0 0-.738-2.004c-.45-.51-1.025-.791-1.622-.791h-.001c-1.279.001-2.358 1.306-2.356 2.849 0 .774.658 1.82 1.272 2.54l.182.213-.056.27c-.1.475-.478.589-.67.625zM4.002 22L4 19.449c0-.893.722-1.625 1.438-1.887l2.794-1.021c-.482-.67-1.062-1.675-1.063-2.633-.002-2.116 1.582-3.906 3.46-3.908.921 0 1.823.428 2.476 1.175.638.729.99 1.68.99 2.68.001.988-.625 2.037-1.129 2.72l2.569.826c.841.302 1.462 1.175 1.463 2.037l.002 2.55L4.002 22z"/>
    </g>
</svg>
