<?xml version="1.0" encoding="UTF-8"?>
<svg width="120px" height="74px" viewBox="0 0 120 74" version="1.1" xmlns="http://www.w3.org/2000/svg" xmlns:xlink="http://www.w3.org/1999/xlink">
    <!-- Generator: Sketch 51.2 (57519) - http://www.bohemiancoding.com/sketch -->
    <title>Group 2</title>
    <desc>Created with Sketch.</desc>
    <defs></defs>
    <g id="Department-of-the-Treasury-002" stroke="none" stroke-width="1" fill="none" fill-rule="evenodd">
        <g id="24" transform="translate(-255.000000, -597.000000)">
            <g id="Group-2" transform="translate(255.000000, 596.000000)">
                <g id="Group-4" transform="translate(0.220771, 0.950044)">
                    <rect id="Rectangle-7-Copy" stroke="#266aca" stroke-width="3" fill-rule="nonzero" x="2.09417683" y="1.57500685" width="103.366022" height="62.7453638" rx="8"></rect>
                    <g id="Add-Symbol" transform="translate(90.364082, 46.936064)">
                        <g id="Group">
                            <ellipse id="Oval" fill="#3AC679" fill-rule="nonzero" cx="14.5" cy="13.5" rx="14.5" ry="13.5"></ellipse>
                            <g id="Group-3" transform="translate(14.500000, 13.500000) rotate(-270.000000) translate(-14.500000, -13.500000) translate(6.868421, 6.394737)" stroke="#FFFFFF" stroke-linecap="round" stroke-linejoin="round" stroke-width="3">
                                <path d="M15.2631579,7.10526316 L0,7.10526316" id="Line"></path>
                                <path d="M7.63157895,14.2105263 L7.63157895,0" id="Line-Copy"></path>
                            </g>
                        </g>
                    </g>
                </g>
                <g id="Group-5" transform="translate(13.000000, 13.000000)" fill-rule="nonzero" stroke="#266aca" stroke-linecap="round" stroke-linejoin="round" stroke-width="3">
                    <path d="M1.5,0.444444444 L1.5,15.5555556" id="Line-5"></path>
                    <path d="M7.5,0.444444444 L7.5,15.5555556" id="Line-5-Copy"></path>
                    <path d="M15.5,0.444444444 L15.5,15.5555556" id="Line-5-Copy-2"></path>
                    <path d="M35.5,0.444444444 L35.5,15.5555556" id="Line-5-Copy-3"></path>
                    <path d="M28.5,0.444444444 L28.5,15.5555556" id="Line-5-Copy-4"></path>
                    <path d="M23.5,0.444444444 L23.5,15.5555556" id="Line-5-Copy-13"></path>
                    <path d="M42.5,0.444444444 L42.5,15.5555556" id="Line-5-Copy-5"></path>
                    <path d="M57.5,0.444444444 L57.5,15.5555556" id="Line-5-Copy-6"></path>
                    <path d="M52.5,0.444444444 L52.5,15.5555556" id="Line-5-Copy-7"></path>
                    <path d="M63.5,0.444444444 L63.5,15.5555556" id="Line-5-Copy-8"></path>
                    <path d="M69.5,0.444444444 L69.5,15.5555556" id="Line-5-Copy-11"></path>
                    <path d="M82.5,0.444444444 L82.5,15.5555556" id="Line-5-Copy-9"></path>
                    <path d="M75.5,0.444444444 L75.5,15.5555556" id="Line-5-Copy-10"></path>
                </g>
            </g>
        </g>
    </g>
</svg>
